<mxfile host="app.diagrams.net" modified="2024-01-14T01:29:16.603Z" agent="Mozilla/5.0 (Windows NT 10.0; Win64; x64) AppleWebKit/537.36 (KHTML, like Gecko) Chrome/120.0.0.0 Safari/537.36" version="22.1.18" etag="TddVk7zjbXB1e-4GoIw6" type="github">
  <diagram name="PÃ¡gina-1" id="LEquvNdwuOiBrEerYsXP">
    <mxGraphModel>
      <root>
        <mxCell id="0" />
        <mxCell id="1" parent="0" />
      </root>
    </mxGraphModel>
  </diagram>
</mxfile>
